<svg width="70" height="72" viewBox="0 0 70 72" fill="none" xmlns="http://www.w3.org/2000/svg">
<g filter="url(#filter0_dd_2_5590)">
<path d="M3 8.12845C3 4.81474 5.68629 2.12845 9 2.12845H61C64.3137 2.12845 67 4.81474 67 8.12845V61.8899C67 65.2036 64.3137 67.8899 61 67.8899H9C5.68629 67.8899 3 65.2036 3 61.8899V8.12845Z" fill="white"/>
<path d="M3.5 8.12845C3.5 5.09089 5.96243 2.62845 9 2.62845H61C64.0376 2.62845 66.5 5.09088 66.5 8.12845V61.8899C66.5 64.9275 64.0376 67.3899 61 67.3899H9C5.96243 67.3899 3.5 64.9275 3.5 61.8899V8.12845Z" stroke="#E2E8F0"/>
<path d="M3.5 8.12845C3.5 5.09089 5.96243 2.62845 9 2.62845H61C64.0376 2.62845 66.5 5.09088 66.5 8.12845V61.8899C66.5 64.9275 64.0376 67.3899 61 67.3899H9C5.96243 67.3899 3.5 64.9275 3.5 61.8899V8.12845Z" stroke="#1E1E1E"/>
</g>
<defs>
<filter id="filter0_dd_2_5590" x="0" y="0.128448" width="70" height="71.7615" filterUnits="userSpaceOnUse" color-interpolation-filters="sRGB">
<feFlood flood-opacity="0" result="BackgroundImageFix"/>
<feColorMatrix in="SourceAlpha" type="matrix" values="0 0 0 0 0 0 0 0 0 0 0 0 0 0 0 0 0 0 127 0" result="hardAlpha"/>
<feOffset dy="1"/>
<feGaussianBlur stdDeviation="1"/>
<feColorMatrix type="matrix" values="0 0 0 0 0 0 0 0 0 0 0 0 0 0 0 0 0 0 0.06 0"/>
<feBlend mode="normal" in2="BackgroundImageFix" result="effect1_dropShadow_2_5590"/>
<feColorMatrix in="SourceAlpha" type="matrix" values="0 0 0 0 0 0 0 0 0 0 0 0 0 0 0 0 0 0 127 0" result="hardAlpha"/>
<feOffset dy="1"/>
<feGaussianBlur stdDeviation="1.5"/>
<feColorMatrix type="matrix" values="0 0 0 0 0 0 0 0 0 0 0 0 0 0 0 0 0 0 0.1 0"/>
<feBlend mode="normal" in2="effect1_dropShadow_2_5590" result="effect2_dropShadow_2_5590"/>
<feBlend mode="normal" in="SourceGraphic" in2="effect2_dropShadow_2_5590" result="shape"/>
</filter>
</defs>
</svg>
